<?xml version="1.0" encoding="UTF-8" standalone="no"?>
<svg
   version="1.1"
   x="0px"
   y="0px"
   viewBox="0 0 1076.002 394.96375"
   xml:space="preserve"
   id="svg30"
   sodipodi:docname="noun-movers-858448.svg"
   inkscape:version="1.1.2 (0a00cf5339, 2022-02-04)"
   width="1076.002"
   height="394.96375"
   xmlns:inkscape="http://www.inkscape.org/namespaces/inkscape"
   xmlns:sodipodi="http://sodipodi.sourceforge.net/DTD/sodipodi-0.dtd"
   xmlns="http://www.w3.org/2000/svg"
   xmlns:svg="http://www.w3.org/2000/svg"><defs
     id="defs34" /><sodipodi:namedview
     id="namedview32"
     pagecolor="#505050"
     bordercolor="#eeeeee"
     borderopacity="1"
     inkscape:pageshadow="0"
     inkscape:pageopacity="0"
     inkscape:pagecheckerboard="0"
     showgrid="false"
     inkscape:zoom="0.44654107"
     inkscape:cx="275.45059"
     inkscape:cy="16.795768"
     inkscape:window-width="1920"
     inkscape:window-height="954"
     inkscape:window-x="0"
     inkscape:window-y="27"
     inkscape:window-maximized="1"
     inkscape:current-layer="svg30"
     height="461.96375px" /><g
     id="g24"
     style="fill:#ffffff"><path
       d="M 838.292,0 H 466.103 c -6.444,0 -11.668,5.224 -11.668,11.668 v 260.6 l -293.334,79.936 4.732,17.368 288.602,-78.646 v 0.175 c 0,6.443 5.224,11.668 11.668,11.668 h 9.007 c 5.036,-31.386 32.296,-55.441 65.079,-55.441 32.783,0 60.044,24.056 65.081,55.441 h 233.022 c 6.444,0 11.668,-5.225 11.668,-11.668 V 11.668 C 849.96,5.224 844.737,0 838.292,0 Z"
       id="path2"
       style="fill:#ffffff" /><path
       d="m 1067.833,178.698 -47.36,-89.717 C 1015.98,80.468 1004.428,73.503 994.801,73.503 H 881.63 c -9.625,0 -17.502,7.875 -17.502,17.502 v 194.261 c 0,9.626 7.877,17.502 17.502,17.502 h 6.673 c 5.036,-31.386 32.296,-55.441 65.08,-55.441 32.782,0 60.043,24.056 65.08,55.441 h 40.038 c 9.626,0 17.501,-7.876 17.501,-17.502 v -73.589 c 0,-9.625 -3.675,-24.466 -8.169,-32.979 z M 920.43,91.004 v 83.53 h -38.8 v -83.53 z m -3.111,123.201 h -24.114 v -9.334 h 24.114 z m 12.446,-39.671 v -83.53 h 65.038 c 3.116,0 8.736,3.393 10.191,6.146 l 40.851,77.384 z"
       id="path4"
       style="fill:#ffffff" /><path
       d="m 953.383,258.995 c -29.963,0 -54.254,24.29 -54.254,54.253 0,29.964 24.291,54.254 54.254,54.254 29.963,0 54.254,-24.29 54.254,-54.254 0,-29.963 -24.291,-54.253 -54.254,-54.253 z m 30.918,54.252 c 0,17.049 -13.869,30.919 -30.919,30.919 -17.047,0 -30.917,-13.87 -30.917,-30.919 0,-17.048 13.87,-30.917 30.917,-30.917 17.05,0 30.919,13.869 30.919,30.917 z"
       id="path6"
       style="fill:#ffffff" /><path
       d="m 540.19,258.995 c -29.963,0 -54.254,24.29 -54.254,54.253 0,29.964 24.291,54.254 54.254,54.254 29.964,0 54.253,-24.29 54.253,-54.254 0,-29.963 -24.289,-54.253 -54.253,-54.253 z m 30.918,54.252 c 0,17.049 -13.869,30.919 -30.92,30.919 -17.046,0 -30.916,-13.87 -30.916,-30.919 0,-17.048 13.87,-30.917 30.916,-30.917 17.051,0 30.92,13.869 30.92,30.917 z"
       id="path8"
       style="fill:#ffffff" /><path
       d="m 71.564,143.425 c -11.409,-4.919 -24.645,0.343 -29.566,11.751 -4.919,11.406 0.343,24.645 11.753,29.562 11.408,4.919 24.643,-0.341 29.562,-11.751 2.198,-5.099 2.357,-10.562 0.848,-15.484 -3.068,0.269 -6.313,0.617 -9.628,1.104 -8.302,1.217 -15.863,1.817 -21.307,1.801 5.009,-0.68 11.222,-1.897 17.888,-3.579 8.335,-2.102 15.706,-4.504 20.741,-6.642 4.537,-1.926 7.177,-3.636 6.905,-4.716 -0.444,-1.752 -8.432,-1.33 -19.311,0.778 -0.805,0.156 -1.625,0.321 -2.46,0.496 -1.605,-1.327 -3.417,-2.455 -5.425,-3.32 z"
       id="path10"
       style="fill:#ffffff" /><path
       d="m 54.207,235.758 c -7.502,-11.669 -9.516,-21.685 -9.845,-23.572 -0.878,-5.505 2.844,-10.642 8.288,-11.513 0.525,-0.085 1.06,-0.128 1.587,-0.128 4.912,0 9.058,3.523 9.856,8.377 l 0.022,0.106 c 0.03,0.149 0.082,0.402 0.168,0.746 0.173,0.731 0.484,1.899 0.999,3.404 0.599,1.757 1.535,4.133 2.918,6.844 0.172,-0.485 0.349,-0.979 0.514,-1.451 4.268,-9.44 2.263,-21.766 -5.881,-25.097 -8.142,-3.329 -21.056,-0.517 -28.137,13.253 -9.632,18.988 -12.959,31.774 -13.586,54.131 0.368,7.647 2.892,12.424 6.403,15.469 0.428,0.999 0.988,1.936 1.659,2.793 1.459,4.249 3.113,10.727 3.081,18.157 -0.011,6.804 -1.284,14.368 -5.196,22.382 -3.935,8.007 -10.559,16.617 -22.057,25.258 -5.522,4.145 -6.642,11.979 -2.5,17.503 2.456,3.273 6.21,5 10.011,5 2.61,0 5.243,-0.814 7.492,-2.5 14.253,-10.677 23.753,-22.484 29.507,-34.269 5.186,-10.575 7.304,-21.001 7.675,-30.259 8.865,10.803 18.58,28.308 24.396,57 1.198,5.932 6.413,10.028 12.241,10.028 0.82,0 1.65,-0.081 2.485,-0.249 6.766,-1.366 11.146,-7.958 9.78,-14.726 -7.706,-38.369 -22.621,-61.801 -36.363,-75.398 -4.828,-4.796 -9.461,-8.352 -13.511,-10.971 0.363,-7.328 1.947,-14.905 4,-22.196 -2.387,-2.821 -4.374,-5.572 -6.006,-8.122 z"
       id="path12"
       style="fill:#ffffff" /><path
       d="m 306.853,88.4 c 6.555,-2.066 12.481,-4.289 17.101,-6.338 -4.625,2.87 -11.375,6.325 -19.078,9.645 -3.074,1.324 -6.018,2.73 -8.769,4.109 1.299,4.984 4.293,9.553 8.84,12.74 10.176,7.131 24.202,4.664 31.332,-5.51 7.133,-10.173 4.665,-24.203 -5.508,-31.331 -10.176,-7.13 -24.203,-4.662 -31.335,5.511 -1.253,1.788 -2.193,3.699 -2.863,5.668 -0.807,0.291 -1.596,0.582 -2.368,0.874 -10.367,3.914 -17.388,7.746 -16.846,9.471 0.335,1.063 3.479,1.133 8.351,0.392 5.409,-0.823 12.945,-2.646 21.143,-5.231 z"
       id="path14"
       style="fill:#ffffff" /><path
       d="m 331.491,135.072 c -1.577,-5.234 1.417,-10.824 6.685,-12.421 0.946,-0.287 1.922,-0.434 2.905,-0.434 4.434,0 8.279,2.854 9.566,7.099 0.416,1.41 1.76,6.545 1.766,14.079 0.004,6.774 -1.168,17.152 -6.768,28.133 -0.269,0.53 -0.556,1.053 -0.84,1.575 2.129,4.91 3.902,9.936 5.051,14.947 -0.793,0.913 -1.596,1.896 -2.399,2.953 -6.527,8.536 -12.707,22.195 -12.653,40.712 0.002,14.283 3.527,31.302 12.43,51.478 2.062,4.674 6.641,7.457 11.443,7.457 1.685,0 3.397,-0.343 5.038,-1.066 6.315,-2.786 9.176,-10.165 6.391,-16.481 -7.802,-17.689 -10.301,-31.25 -10.301,-41.387 0.024,-5.854 0.823,-10.611 2.018,-14.523 0.23,0.629 0.467,1.262 0.715,1.9 6.999,18.192 21.577,40.574 49.698,55.145 1.842,0.958 3.814,1.413 5.757,1.413 4.515,0 8.874,-2.453 11.101,-6.736 3.185,-6.124 0.801,-13.672 -5.323,-16.856 -21.878,-11.432 -32.365,-27.883 -37.931,-42.019 -2.739,-7.042 -4.124,-13.43 -4.804,-17.946 -0.097,-0.64 -0.179,-1.236 -0.25,-1.797 2.204,-3.54 3.287,-8.322 2.337,-14.944 -4.849,-21.833 -10.536,-33.759 -23.588,-50.58 -9.561,-12.18 -22.774,-12.496 -30.138,-7.687 -7.365,4.813 -7.001,17.296 -1.022,25.757 1.13,1.938 2.365,4.015 3.647,6.183 0.249,-1.853 0.389,-3.728 0.391,-5.629 0.005,-4.959 -0.911,-8.291 -0.922,-8.325 z"
       id="path16"
       style="fill:#ffffff" /><path
       d="m 112.884,256.054 c 1.229,2.372 1.458,5.082 0.647,7.628 -1.326,4.168 -5.156,6.969 -9.527,6.969 -1.021,0 -2.042,-0.16 -3.03,-0.472 -1.538,-0.486 -3.031,-1 -4.486,-1.534 l 12.754,43.722 221.833,-64.712 -13.632,-46.733 c -0.427,0.265 -0.848,0.534 -1.282,0.795 -1.554,0.936 -3.335,1.432 -5.148,1.432 -3.492,0 -6.777,-1.855 -8.575,-4.841 -2.845,-4.726 -1.315,-10.882 3.408,-13.726 2.03,-1.227 3.934,-2.492 5.724,-3.797 l -10.624,-36.422 -221.836,64.711 9.799,33.591 c 5.349,3.469 11.395,6.298 18.129,8.455 2.541,0.809 4.619,2.561 5.846,4.934 z"
       id="path18"
       style="fill:#ffffff" /><path
       d="m 304.149,197.273 c 1.501,2.494 4.149,3.875 6.862,3.875 1.405,0 2.827,-0.37 4.118,-1.147 14.518,-8.718 23.56,-19.194 28.735,-29.383 5.197,-10.189 6.552,-19.919 6.548,-27.22 -0.007,-7.83 -1.518,-12.955 -1.679,-13.501 -1.284,-4.229 -5.75,-6.615 -9.978,-5.331 -4.225,1.281 -6.61,5.741 -5.336,9.966 h -10e-4 c 0.116,0.416 1,3.855 0.995,8.866 -0.004,5.367 -0.98,12.457 -4.803,19.949 -3.84,7.491 -10.504,15.558 -22.734,22.946 -3.786,2.28 -5.006,7.196 -2.727,10.98 z"
       id="path20"
       style="fill:#ffffff" /><path
       d="m 62.342,210.255 c -0.098,-0.395 -0.158,-0.686 -0.19,-0.854 -0.012,-0.059 -0.021,-0.104 -0.025,-0.131 -0.003,-0.023 -0.005,-0.024 -0.005,-0.024 -0.716,-4.342 -4.806,-7.293 -9.156,-6.598 -4.363,0.698 -7.334,4.8 -6.636,9.163 0.127,0.73 1.795,10.792 9.563,22.87 7.721,12.064 21.846,26.047 45.686,33.591 0.806,0.256 1.623,0.378 2.426,0.378 3.391,0 6.54,-2.172 7.623,-5.575 1.34,-4.212 -0.988,-8.711 -5.197,-10.049 -20.16,-6.459 -30.922,-17.526 -37.087,-27.011 -3.058,-4.743 -4.897,-9.1 -5.952,-12.19 -0.53,-1.546 -0.86,-2.773 -1.05,-3.57 z"
       id="path22"
       style="fill:#ffffff" /></g><text
     x="0"
     y="384.57101"
     fill="#000000"
     font-size="5px"
     font-weight="bold"
     font-family="'Helvetica Neue', Helvetica, Arial-Unicode, Arial, Sans-serif"
     id="text26"
     style="fill:#ffffff">Created by Gan Khoon Lay</text><text
     x="0"
     y="389.57101"
     fill="#000000"
     font-size="5px"
     font-weight="bold"
     font-family="'Helvetica Neue', Helvetica, Arial-Unicode, Arial, Sans-serif"
     id="text28"
     style="fill:#ffffff">from the Noun Project</text></svg>
